General
Unique ID                                : 219163443183576361478357248299633099983 (0xA4E15802E5FD5F58086EE387E09644CF)
Complete name                            : Hackers 1995 1080p UHD BluRay DD+5.1 DoVi HDR10 x265-DON.mkv
Format                                   : Matroska
Format version                           : Version 4
File size                                : 13.5 GiB
Duration                                 : 1 h 45 min
Overall bit rate mode                    : Variable
Overall bit rate                         : 18.4 Mb/s
Movie name                               : Hackers 1995 1080p UHD BluRay DD+5.1 DoVi HDR10 x265-DON
Encoded date                             : UTC 2023-11-17 19:22:58
Writing application                      : mkvmerge v80.0 ('Roundabout') 64-bit
Writing library                          : libebml v1.4.4 + libmatroska v1.7.1

Video
ID                                       : 1
Format                                   : HEVC
Format/Info                              : High Efficiency Video Coding
Format profile                           : Main 10@L5.1@High
HDR format                               : Dolby Vision, Version 1.0, dvhe.08.03, BL+RPU, HDR10 compatible / SMPTE ST 2086, HDR10 compatible
Codec ID                                 : V_MPEGH/ISO/HEVC
Duration                                 : 1 h 45 min
Bit rate                                 : 16.0 Mb/s
Width                                    : 1 920 pixels
Height                                   : 804 pixels
Display aspect ratio                     : 2.40:1
Frame rate mode                          : Constant
Frame rate                               : 23.976 (24000/1001) FPS
Color space                              : YUV
Chroma subsampling                       : 4:2:0 (Type 2)
Bit depth                                : 10 bits
Bits/(Pixel*Frame)                       : 0.433
Stream size                              : 11.8 GiB (87%)
Title                                    : Hackers 1995 1080p UHD BluRay DD+5.1 DoVi HDR10 x265-DON
Writing library                          : x265 3.5+110-8ee01d45b:[Windows][MSVC 1937][64 bit] 10bit
Encoding settings                        : cpuid=1049583 / frame-threads=4 / numa-pools=24 / wpp / no-pmode / no-pme / no-psnr / no-ssim / log-level=2 / input-csp=1 / input-res=1920x804 / interlace=0 / total-frames=151661 / level-idc=51 / high-tier=1 / uhd-bd=0 / ref=6 / no-allow-non-conformance / repeat-headers / annexb / aud / no-eob / no-eos / hrd / info / hash=0 / temporal-layers=0 / no-open-gop / min-keyint=23 / keyint=250 / gop-lookahead=0 / bframes=12 / b-adapt=2 / b-pyramid / bframe-bias=0 / rc-lookahead=40 / lookahead-slices=4 / scenecut=40 / no-hist-scenecut / radl=0 / no-splice / no-intra-refresh / ctu=64 / min-cu-size=8 / no-rect / no-amp / max-tu-size=32 / tu-inter-depth=4 / tu-intra-depth=4 / limit-tu=4 / rdoq-level=2 / dynamic-rd=0.00 / no-ssim-rd / signhide / no-tskip / nr-intra=0 / nr-inter=0 / no-constrained-intra / strong-intra-smoothing / max-merge=4 / limit-refs=1 / limit-modes / me=3 / subme=5 / merange=57 / temporal-mvp / no-frame-dup / no-hme / weightp / weightb / no-analyze-src-pics / deblock=-3:-3 / no-sao / no-sao-non-deblock / rd=4 / selective-sao=0 / no-early-skip / rskip / no-fast-intra / no-tskip-fast / no-cu-lossless / b-intra / no-splitrd-skip / rdpenalty=0 / psy-rd=1.80 / psy-rdoq=1.60 / no-rd-refine / no-lossless / cbqpoffs=0 / crqpoffs=0 / rc=crf / crf=14.5 / qcomp=0.60 / qpstep=4 / stats-write=0 / stats-read=0 / vbv-maxrate=160000 / vbv-bufsize=160000 / vbv-init=0.9 / min-vbv-fullness=50.0 / max-vbv-fullness=80.0 / crf-max=0.0 / crf-min=0.0 / ipratio=1.40 / pbratio=1.30 / aq-mode=3 / aq-strength=0.85 / no-cutree / zone-count=0 / no-strict-cbr / qg-size=32 / no-rc-grain / qpmax=69 / qpmin=0 / no-const-vbv / sar=0 / overscan=0 / videoformat=5 / range=0 / colorprim=9 / transfer=16 / colormatrix=9 / chromaloc=1 / chromaloc-top=2 / chromaloc-bottom=2 / display-window=0 / master-display=G(13250,34500)B(7500,3000)R(34000,16000)WP(15635,16450)L(10000000,01) / cll=841,500 / min-luma=0 / max-luma=1023 / log2-max-poc-lsb=8 / vui-timing-info / vui-hrd-info / slices=1 / no-opt-qp-pps / no-opt-ref-list-length-pps / no-multi-pass-opt-rps / scenecut-bias=0.05 / no-opt-cu-delta-qp / no-aq-motion / hdr10 / hdr10-opt / no-dhdr10-opt / no-idr-recovery-sei / analysis-reuse-level=0 / analysis-save-reuse-level=0 / analysis-load-reuse-level=0 / scale-factor=0 / refine-intra=0 / refine-inter=0 / refine-mv=1 / refine-ctu-distortion=0 / no-limit-sao / ctu-info=0 / no-lowpass-dct / refine-analysis-type=0 / copy-pic=1 / max-ausize-factor=1.0 / no-dynamic-refine / no-single-sei / no-hevc-aq / no-svt / no-field / qp-adaptation-range=1.00 / scenecut-aware-qp=0conformance-window-offsets / right=0 / bottom=0 / decoder-max-rate=0 / no-vbv-live-multi-pass / no-mcstf / no-sbrc
Language                                 : English
Default                                  : Yes
Forced                                   : No
Color range                              : Limited
Color primaries                          : BT.2020
Transfer characteristics                 : PQ
Matrix coefficients                      : BT.2020 non-constant
Mastering display color primaries        : Display P3
Mastering display luminance              : min: 0.0001 cd/m2, max: 1000 cd/m2
Maximum Content Light Level              : 841 cd/m2
Maximum Frame-Average Light Level        : 500 cd/m2

Audio #1
ID                                       : 2
Format                                   : E-AC-3
Format/Info                              : Enhanced AC-3
Commercial name                          : Dolby Digital Plus
Codec ID                                 : A_EAC3
Duration                                 : 1 h 45 min
Bit rate mode                            : Constant
Bit rate                                 : 640 kb/s
Channel(s)                               : 6 channels
Channel layout                           : L R C LFE Ls Rs
Sampling rate                            : 48.0 kHz
Frame rate                               : 31.250 FPS (1536 SPF)
Compression mode                         : Lossy
Stream size                              : 483 MiB (3%)
Title                                    : Original Surround Mix (Amazon WEB)
Language                                 : English
Service kind                             : Complete Main
Default                                  : Yes
Forced                                   : No

Audio #2
ID                                       : 3
Format                                   : FLAC
Format/Info                              : Free Lossless Audio Codec
Codec ID                                 : A_FLAC
Duration                                 : 1 h 45 min
Bit rate mode                            : Variable
Bit rate                                 : 1 448 kb/s
Channel(s)                               : 2 channels
Channel layout                           : L R
Sampling rate                            : 48.0 kHz
Frame rate                               : 11.719 FPS (4096 SPF)
Bit depth                                : 24 bits
Compression mode                         : Lossless
Stream size                              : 1.07 GiB (8%)
Title                                    : Original Stereo Mix
Writing library                          : libFLAC 1.4.3 (UTC 2023-06-23)
Language                                 : English
Default                                  : No
Forced                                   : No

Audio #3
ID                                       : 4
Format                                   : AC-3
Format/Info                              : Audio Coding 3
Commercial name                          : Dolby Digital
Codec ID                                 : A_AC3
Duration                                 : 1 h 45 min
Bit rate mode                            : Constant
Bit rate                                 : 192 kb/s
Channel(s)                               : 2 channels
Channel layout                           : L R
Sampling rate                            : 48.0 kHz
Frame rate                               : 31.250 FPS (1536 SPF)
Compression mode                         : Lossy
Stream size                              : 145 MiB (1%)
Title                                    : Commentary by director Iain Softley and film critic Mark Kermode
Language                                 : English
Service kind                             : Complete Main
Default                                  : No
Forced                                   : No

Text #1
ID                                       : 5
Format                                   : UTF-8
Codec ID                                 : S_TEXT/UTF8
Codec ID/Info                            : UTF-8 Plain Text
Duration                                 : 1 h 40 min
Bit rate                                 : 117 b/s
Count of elements                        : 1476
Stream size                              : 86.8 KiB (0%)
Language                                 : English
Default                                  : No
Forced                                   : No

Text #2
ID                                       : 6
Format                                   : UTF-8
Codec ID                                 : S_TEXT/UTF8
Codec ID/Info                            : UTF-8 Plain Text
Duration                                 : 1 h 41 min
Bit rate                                 : 126 b/s
Count of elements                        : 1610
Stream size                              : 94.0 KiB (0%)
Title                                    : SDH
Language                                 : English
Default                                  : No
Forced                                   : No

Text #3
ID                                       : 7
Format                                   : UTF-8
Codec ID                                 : S_TEXT/UTF8
Codec ID/Info                            : UTF-8 Plain Text
Duration                                 : 1 h 38 min
Bit rate                                 : 74 b/s
Count of elements                        : 782
Stream size                              : 53.9 KiB (0%)
Language                                 : Danish
Default                                  : No
Forced                                   : No

Text #4
ID                                       : 8
Format                                   : UTF-8
Codec ID                                 : S_TEXT/UTF8
Codec ID/Info                            : UTF-8 Plain Text
Duration                                 : 1 h 38 min
Bit rate                                 : 70 b/s
Count of elements                        : 800
Stream size                              : 50.8 KiB (0%)
Language                                 : Finnish
Default                                  : No
Forced                                   : No

Text #5
ID                                       : 9
Format                                   : UTF-8
Codec ID                                 : S_TEXT/UTF8
Codec ID/Info                            : UTF-8 Plain Text
Duration                                 : 1 h 38 min
Bit rate                                 : 97 b/s
Count of elements                        : 1091
Stream size                              : 70.9 KiB (0%)
Language                                 : French
Default                                  : No
Forced                                   : No

Text #6
ID                                       : 10
Format                                   : UTF-8
Codec ID                                 : S_TEXT/UTF8
Codec ID/Info                            : UTF-8 Plain Text
Duration                                 : 1 h 38 min
Bit rate                                 : 100 b/s
Count of elements                        : 1111
Stream size                              : 72.3 KiB (0%)
Language                                 : German
Default                                  : No
Forced                                   : No

Text #7
ID                                       : 11
Format                                   : UTF-8
Codec ID                                 : S_TEXT/UTF8
Codec ID/Info                            : UTF-8 Plain Text
Duration                                 : 1 h 38 min
Bit rate                                 : 90 b/s
Count of elements                        : 1063
Stream size                              : 65.5 KiB (0%)
Language                                 : Italian
Default                                  : No
Forced                                   : No

Text #8
ID                                       : 12
Format                                   : UTF-8
Codec ID                                 : S_TEXT/UTF8
Codec ID/Info                            : UTF-8 Plain Text
Duration                                 : 1 h 38 min
Bit rate                                 : 66 b/s
Count of elements                        : 733
Stream size                              : 48.3 KiB (0%)
Language                                 : Norwegian
Default                                  : No
Forced                                   : No

Text #9
ID                                       : 13
Format                                   : UTF-8
Codec ID                                 : S_TEXT/UTF8
Codec ID/Info                            : UTF-8 Plain Text
Duration                                 : 1 h 41 min
Bit rate                                 : 130 b/s
Count of elements                        : 1608
Stream size                              : 96.8 KiB (0%)
Title                                    : BRZ
Language                                 : Portuguese
Default                                  : No
Forced                                   : No

Text #10
ID                                       : 14
Format                                   : UTF-8
Codec ID                                 : S_TEXT/UTF8
Codec ID/Info                            : UTF-8 Plain Text
Duration                                 : 1 h 38 min
Bit rate                                 : 96 b/s
Count of elements                        : 1061
Stream size                              : 69.5 KiB (0%)
Language                                 : Spanish
Default                                  : No
Forced                                   : No

Text #11
ID                                       : 15
Format                                   : UTF-8
Codec ID                                 : S_TEXT/UTF8
Codec ID/Info                            : UTF-8 Plain Text
Duration                                 : 1 h 38 min
Bit rate                                 : 105 b/s
Count of elements                        : 1128
Stream size                              : 76.4 KiB (0%)
Title                                    : LA
Language                                 : Spanish
Default                                  : No
Forced                                   : No

Text #12
ID                                       : 16
Format                                   : UTF-8
Codec ID                                 : S_TEXT/UTF8
Codec ID/Info                            : UTF-8 Plain Text
Duration                                 : 1 h 38 min
Bit rate                                 : 62 b/s
Count of elements                        : 606
Stream size                              : 44.9 KiB (0%)
Language                                 : Swedish
Default                                  : No
Forced                                   : No

Text #13
ID                                       : 17
Format                                   : PGS
Codec ID                                 : S_HDMV/PGS
Codec ID/Info                            : Picture based subtitle format used on BDs/HD-DVDs
Duration                                 : 1 h 38 min
Bit rate                                 : 25.6 kb/s
Count of elements                        : 2046
Stream size                              : 18.1 MiB (0%)
Language                                 : English
Default                                  : No
Forced                                   : No

Text #14
ID                                       : 18
Format                                   : PGS
Codec ID                                 : S_HDMV/PGS
Codec ID/Info                            : Picture based subtitle format used on BDs/HD-DVDs
Duration                                 : 1 h 41 min
Bit rate                                 : 42.0 kb/s
Count of elements                        : 3246
Stream size                              : 30.5 MiB (0%)
Title                                    : SDH
Language                                 : English
Default                                  : No
Forced                                   : No

Menu
00:00:00.000                             : en:Logo / Sentencing
00:02:16.970                             : en:Main Title
00:04:42.031                             : en:TV Takeover
00:08:38.434                             : en:Crossing Wires & Mom
00:10:17.366                             : en:Kate Plays Dirty Pool
00:13:40.069                             : en:The Phreak... & Joey
00:15:07.615                             : en:Outscoring Kate
00:18:17.221                             : en:A New Leak in Town
00:22:34.811                             : en:Back at Cyberdelia
00:25:47.545                             : en:Joey Hacks the Plague
00:30:17.524                             : en:At Lord Nikon's
00:32:24.609                             : en:Joey Gets Busted
00:33:49.360                             : en:Leonardo Da Virus
00:39:47.176                             : en:Zero Cool Discovered
00:44:19.198                             : en:When Crash Meets Burn
00:48:36.663                             : en:Profiling Dade
00:49:34.805                             : en:"Risk is Good" / The Bet
00:54:33.520                             : en:The Dress & The Dream
00:57:25.900                             : en:"The New World Order"
00:58:34.219                             : en:Phreak & The Fuzz
01:02:33.458                             : en:Kate Comes Over
01:04:49.844                             : en:Plague Threatens Dade
01:08:00.367                             : en:"It's a Worm"
01:12:26.175                             : en:Kamikaze Kate
01:16:54.568                             : en:Discovering Da Virus
01:18:32.124                             : en:Razor & Blade
01:22:28.485                             : en:Hack the Planet
01:25:48.768                             : en:A New Virus
01:31:24.478                             : en:Getting the Worm
01:32:52.733                             : en:Nabbed By Feds
01:35:35.896                             : en:Cereal's TV Debut
01:38:20.978                             : en:The Swim / End Credits
